Coordinates
version=1
nRows=8
nColumns=40
inDegrees=yes

Units are S.I. units (second, meters, Newtons, ...)
Angles are in degrees.

endheader
time	pelvis_tilt	pelvis_list	pelvis_rotation	pelvis_tx	pelvis_ty	pelvis_tz	hip_flexion_r	hip_adduction_r	hip_rotation_r	knee_angle_r	knee_angle_r_beta	ankle_angle_r	subtalar_angle_r	mtp_angle_r	hip_flexion_l	hip_adduction_l	hip_rotation_l	knee_angle_l	knee_angle_l_beta	ankle_angle_l	subtalar_angle_l	mtp_angle_l	lumbar_extension	lumbar_bending	lumbar_rotation	arm_flex_r	arm_add_r	arm_rot_r	elbow_flex_r	pro_sup_r	wrist_flex_r	wrist_dev_r	arm_flex_l	arm_add_l	arm_rot_l	elbow_flex_l	pro_sup_l	wrist_flex_l	wrist_dev_l
      0.69000000	     -0.62216427	      1.20469478	     -1.98804311	     -0.70009449	      0.89174879	      0.99027111	     -5.82030898	     -3.93669814	    -12.94858334	    -35.49749535	     -0.61954817	     -5.06366508	     -4.27689472	     -0.58511125	     16.82951584	     -2.48057847	     12.90190101	    -13.86185793	     -0.24193506	     -2.88178445	      2.39191134	     -6.21881814	     -5.96938957	     -1.85697210	      4.41528256	     15.92313269	    -10.12899463	     11.67421115	     25.35519443	     89.95437384	      0.00000000	      0.00000000	     -4.30426112	      7.38474099	    -22.20822943	     12.91303254	     89.95437384	      0.00000000	      0.00000000
      0.70000000	     -0.72905307	      1.30677332	     -1.91930350	     -0.68982261	      0.89306896	      0.98890969	     -4.64508834	     -4.31178712	    -12.73055761	    -37.74112456	     -0.65870689	     -8.23086838	     -5.08719307	      0.14001775	     16.05438072	     -2.74274586	     12.87310580	    -13.58877910	     -0.23716894	     -2.31645932	      1.97012628	     -6.03852943	     -5.70674696	     -1.86125452	      3.92405133	     15.50505808	     -9.83245344	     11.70266796	     24.85482679	     89.95437384	      0.00000000	      0.00000000	     -4.22221605	      7.36425606	    -22.38705365	     12.94558112	     89.95437384	      0.00000000	      0.00000000
      0.71000000	     -1.13991648	      1.41343349	     -1.86835777	     -0.68021982	      0.89373855	      0.98779034	     -2.91388628	     -4.44296802	    -12.01573104	    -40.10651612	     -0.69999076	    -12.05530169	     -8.62549513	      2.20885592	     15.74324627	     -2.96959480	     13.11235546	    -13.39969992	     -0.23386888	     -2.09407619	      1.77742061	     -5.41513883	     -5.19019945	     -1.89769113	      3.58661992	     14.92828814	     -9.62433058	     11.68794290	     24.61732859	     89.95437384	      0.00000000	      0.00000000	     -4.08963999	      7.46639189	    -22.69322141	     13.27628078	     89.95437384	      0.00000000	      0.00000000
      0.72000000	     -1.13814796	      1.39985396	     -1.90242328	     -0.67016856	      0.89463226	      0.98654322	     -1.71306795	     -4.61246344	    -11.37937465	    -42.34667890	     -0.73908897	    -14.43494346	     -9.09264362	      2.82468544	     14.88946736	     -3.08186824	     13.26109109	    -13.20280809	     -0.23043247	     -1.38855685	      1.23008917	     -5.36557859	     -5.08470003	     -1.75324513	      3.18965299	     14.46165567	     -9.45855107	     11.78097614	     24.32263717	     89.95437384	      0.00000000	      0.00000000	     -3.93191566	      7.43419289	    -22.72023824	     13.47318453	     89.95437384	      0.00000000	      0.00000000
      0.73000000	     -1.24790786	      1.53226490	     -2.02868666	     -0.66057908	      0.89506970	      0.98546432	     -0.17045964	     -4.86454971	    -10.59167866	    -44.85487594	     -0.78286527	    -15.59704347	    -10.57857694	      3.48339129	     14.21952867	     -3.30268802	     13.71809834	    -13.02010711	     -0.22724374	     -0.84539662	      0.58864170	     -5.29192232	     -4.91681109	     -1.78084751	      2.87998545	     13.95622874	     -9.33183920	     11.90449025	     24.13759842	     89.95437384	      0.00000000	      0.00000000	     -3.75964932	      7.48936010	    -22.71001902	     13.84664300	     89.95437384	      0.00000000	      0.00000000
      0.74000000	     -1.23886521	      1.66336037	     -2.15568906	     -0.65113203	      0.89534281	      0.98443628	      1.25743317	     -5.12534408	    -10.02447283	    -47.35517725	     -0.82650376	    -15.03818840	    -12.22596620	      3.92461575	     13.48278889	     -3.50362423	     14.13585603	    -12.96574709	     -0.22629498	     -0.25364023	     -0.04234724	     -5.26160128	     -4.90381901	     -1.79981349	      2.65580272	     13.47052473	     -9.26995683	     11.96961028	     23.94238023	     89.95437384	      0.00000000	      0.00000000	     -3.48254847	      7.59918715	    -22.48733964	     14.31309191	     89.95437384	      0.00000000	      0.00000000
      0.75000000	     -1.11731830	      1.87247633	     -2.35552033	     -0.64176653	      0.89551346	      0.98351613	      2.64270199	     -5.52564791	     -9.61863695	    -49.80351126	     -0.86923525	    -14.08787247	    -13.73534076	      4.34394064	     12.65639052	     -3.76790130	     14.60314358	    -12.97520617	     -0.22646007	      0.35348007	     -0.65217556	     -5.25816154	     -5.02517513	     -1.91600454	      2.46676150	     13.04281772	     -9.19406513	     12.06140320	     23.67172170	     89.95437384	      0.00000000	      0.00000000	     -3.14462323	      7.69146902	    -22.53256758	     14.70492130	     89.95437384	      0.00000000	      0.00000000
      0.76000000	     -0.77795849	      1.71193732	     -2.28484369	     -0.63253650	      0.89601276	      0.98230303	      3.64981840	     -5.59790085	     -9.64131022	    -51.80047416	     -0.90408883	    -13.60709179	    -14.13469508	      4.38843382	     11.67637236	     -3.68254252	     14.77785584	    -13.12848571	     -0.22913530	      0.72278768	     -0.88637814	     -5.22897803	     -5.46956582	     -1.58807586	      2.03488100	     12.63395581	     -9.19285378	     12.06208788	     23.50352830	     89.95437384	      0.00000000	      0.00000000	     -2.68994858	      7.75411680	    -22.50688616	     15.12192901	     89.95437384	      0.00000000	      0.00000000
